<svg width="1280" height="320" viewBox="0 0 1280 320" xmlns="http://www.w3.org/2000/svg" role="img" aria-label="s2pro-native banner">
  <defs>
    <linearGradient id="bg" x1="0" y1="0" x2="1" y2="1">
      <stop offset="0" stop-color="#0b1120"/>
      <stop offset="0.55" stop-color="#0e1628"/>
      <stop offset="1" stop-color="#101b30"/>
    </linearGradient>
    <linearGradient id="wave" x1="0" y1="0" x2="1" y2="0">
      <stop offset="0" stop-color="#22d3ee"/>
      <stop offset="0.5" stop-color="#818cf8"/>
      <stop offset="1" stop-color="#fb7185"/>
    </linearGradient>
    <linearGradient id="accent" x1="0" y1="0" x2="1" y2="0">
      <stop offset="0" stop-color="#22d3ee"/>
      <stop offset="1" stop-color="#818cf8"/>
    </linearGradient>
  </defs>
  <rect width="1280" height="320" fill="url(#bg)"/>
  <g><rect x="40.0" y="200.0" width="6.4" height="12.0" rx="3.2" fill="url(#wave)" opacity="0.35"/><rect x="50.9" y="198.1" width="6.4" height="15.9" rx="3.2" fill="url(#wave)" opacity="0.40"/><rect x="61.8" y="196.5" width="6.4" height="18.9" rx="3.2" fill="url(#wave)" opacity="0.44"/><rect x="72.7" y="195.5" width="6.4" height="21.0" rx="3.2" fill="url(#wave)" opacity="0.49"/><rect x="83.6" y="194.9" width="6.4" height="22.2" rx="3.2" fill="url(#wave)" opacity="0.54"/><rect x="94.5" y="194.3" width="6.4" height="23.4" rx="3.2" fill="url(#wave)" opacity="0.58"/><rect x="105.5" y="193.4" width="6.4" height="25.2" rx="3.2" fill="url(#wave)" opacity="0.63"/><rect x="116.4" y="191.7" width="6.4" height="28.6" rx="3.2" fill="url(#wave)" opacity="0.68"/><rect x="127.3" y="188.9" width="6.4" height="34.2" rx="3.2" fill="url(#wave)" opacity="0.72"/><rect x="138.2" y="184.9" width="6.4" height="42.3" rx="3.2" fill="url(#wave)" opacity="0.77"/><rect x="149.1" y="179.8" width="6.4" height="52.4" rx="3.2" fill="url(#wave)" opacity="0.81"/><rect x="160.0" y="174.2" width="6.4" height="63.7" rx="3.2" fill="url(#wave)" opacity="0.86"/><rect x="170.9" y="168.7" width="6.4" height="74.6" rx="3.2" fill="url(#wave)" opacity="0.91"/><rect x="181.8" y="164.3" width="6.4" height="83.5" rx="3.2" fill="url(#wave)" opacity="0.95"/><rect x="192.7" y="161.6" width="6.4" height="88.7" rx="3.2" fill="url(#wave)" opacity="1.00"/><rect x="203.6" y="163.7" width="6.4" height="84.6" rx="3.2" fill="url(#wave)" opacity="1.00"/><rect x="214.5" y="168.0" width="6.4" height="76.0" rx="3.2" fill="url(#wave)" opacity="1.00"/><rect x="225.5" y="174.1" width="6.4" height="63.8" rx="3.2" fill="url(#wave)" opacity="1.00"/><rect x="236.4" y="181.2" width="6.4" height="49.6" rx="3.2" fill="url(#wave)" opacity="1.00"/><rect x="247.3" y="188.5" width="6.4" height="35.0" rx="3.2" fill="url(#wave)" opacity="1.00"/><rect x="258.2" y="195.0" width="6.4" height="22.0" rx="3.2" fill="url(#wave)" opacity="1.00"/><rect x="269.1" y="199.5" width="6.4" height="13.0" rx="3.2" fill="url(#wave)" opacity="1.00"/><rect x="280.0" y="196.5" width="6.4" height="19.0" rx="3.2" fill="url(#wave)" opacity="1.00"/><rect x="290.9" y="195.7" width="6.4" height="20.5" rx="3.2" fill="url(#wave)" opacity="1.00"/><rect x="301.8" y="196.9" width="6.4" height="18.1" rx="3.2" fill="url(#wave)" opacity="1.00"/><rect x="312.7" y="199.6" width="6.4" height="12.8" rx="3.2" fill="url(#wave)" opacity="1.00"/><rect x="323.6" y="196.5" width="6.4" height="18.9" rx="3.2" fill="url(#wave)" opacity="1.00"/><rect x="334.5" y="193.3" width="6.4" height="25.5" rx="3.2" fill="url(#wave)" opacity="1.00"/><rect x="345.5" y="190.8" width="6.4" height="30.4" rx="3.2" fill="url(#wave)" opacity="1.00"/><rect x="356.4" y="189.7" width="6.4" height="32.6" rx="3.2" fill="url(#wave)" opacity="1.00"/><rect x="367.3" y="190.2" width="6.4" height="31.6" rx="3.2" fill="url(#wave)" opacity="1.00"/><rect x="378.2" y="192.2" width="6.4" height="27.6" rx="3.2" fill="url(#wave)" opacity="1.00"/><rect x="389.1" y="195.3" width="6.4" height="21.4" rx="3.2" fill="url(#wave)" opacity="1.00"/><rect x="400.0" y="198.7" width="6.4" height="14.6" rx="3.2" fill="url(#wave)" opacity="1.00"/><rect x="410.9" y="197.8" width="6.4" height="16.5" rx="3.2" fill="url(#wave)" opacity="1.00"/><rect x="421.8" y="195.8" width="6.4" height="20.3" rx="3.2" fill="url(#wave)" opacity="1.00"/><rect x="432.7" y="195.6" width="6.4" height="20.8" rx="3.2" fill="url(#wave)" opacity="1.00"/><rect x="443.6" y="197.3" width="6.4" height="17.3" rx="3.2" fill="url(#wave)" opacity="1.00"/><rect x="454.5" y="198.6" width="6.4" height="14.8" rx="3.2" fill="url(#wave)" opacity="1.00"/><rect x="465.5" y="193.6" width="6.4" height="24.8" rx="3.2" fill="url(#wave)" opacity="1.00"/><rect x="476.4" y="187.9" width="6.4" height="36.2" rx="3.2" fill="url(#wave)" opacity="1.00"/><rect x="487.3" y="182.4" width="6.4" height="47.3" rx="3.2" fill="url(#wave)" opacity="1.00"/><rect x="498.2" y="177.9" width="6.4" height="56.2" rx="3.2" fill="url(#wave)" opacity="1.00"/><rect x="509.1" y="175.2" width="6.4" height="61.6" rx="3.2" fill="url(#wave)" opacity="1.00"/><rect x="520.0" y="174.8" width="6.4" height="62.4" rx="3.2" fill="url(#wave)" opacity="1.00"/><rect x="530.9" y="176.8" width="6.4" height="58.3" rx="3.2" fill="url(#wave)" opacity="1.00"/><rect x="541.8" y="181.0" width="6.4" height="49.9" rx="3.2" fill="url(#wave)" opacity="1.00"/><rect x="552.7" y="186.9" width="6.4" height="38.2" rx="3.2" fill="url(#wave)" opacity="1.00"/><rect x="563.6" y="193.6" width="6.4" height="24.8" rx="3.2" fill="url(#wave)" opacity="1.00"/><rect x="574.5" y="199.3" width="6.4" height="13.4" rx="3.2" fill="url(#wave)" opacity="1.00"/><rect x="585.5" y="193.5" width="6.4" height="25.0" rx="3.2" fill="url(#wave)" opacity="1.00"/><rect x="596.4" y="189.1" width="6.4" height="33.7" rx="3.2" fill="url(#wave)" opacity="1.00"/><rect x="607.3" y="186.5" width="6.4" height="38.9" rx="3.2" fill="url(#wave)" opacity="1.00"/><rect x="618.2" y="185.6" width="6.4" height="40.7" rx="3.2" fill="url(#wave)" opacity="1.00"/><rect x="629.1" y="186.1" width="6.4" height="39.9" rx="3.2" fill="url(#wave)" opacity="1.00"/><rect x="640.0" y="187.2" width="6.4" height="37.6" rx="3.2" fill="url(#wave)" opacity="1.00"/><rect x="650.9" y="188.3" width="6.4" height="35.5" rx="3.2" fill="url(#wave)" opacity="1.00"/><rect x="661.8" y="188.6" width="6.4" height="34.9" rx="3.2" fill="url(#wave)" opacity="1.00"/><rect x="672.7" y="187.5" width="6.4" height="37.0" rx="3.2" fill="url(#wave)" opacity="1.00"/><rect x="683.6" y="184.9" width="6.4" height="42.3" rx="3.2" fill="url(#wave)" opacity="1.00"/><rect x="694.5" y="180.6" width="6.4" height="50.8" rx="3.2" fill="url(#wave)" opacity="1.00"/><rect x="705.5" y="175.2" width="6.4" height="61.5" rx="3.2" fill="url(#wave)" opacity="1.00"/><rect x="716.4" y="169.3" width="6.4" height="73.3" rx="3.2" fill="url(#wave)" opacity="1.00"/><rect x="727.3" y="163.8" width="6.4" height="84.4" rx="3.2" fill="url(#wave)" opacity="1.00"/><rect x="738.2" y="159.4" width="6.4" height="93.1" rx="3.2" fill="url(#wave)" opacity="1.00"/><rect x="749.1" y="157.0" width="6.4" height="98.0" rx="3.2" fill="url(#wave)" opacity="1.00"/><rect x="760.0" y="156.9" width="6.4" height="98.1" rx="3.2" fill="url(#wave)" opacity="1.00"/><rect x="770.9" y="159.3" width="6.4" height="93.3" rx="3.2" fill="url(#wave)" opacity="1.00"/><rect x="781.8" y="164.0" width="6.4" height="84.1" rx="3.2" fill="url(#wave)" opacity="1.00"/><rect x="792.7" y="170.2" width="6.4" height="71.5" rx="3.2" fill="url(#wave)" opacity="1.00"/><rect x="803.6" y="177.3" width="6.4" height="57.4" rx="3.2" fill="url(#wave)" opacity="1.00"/><rect x="814.5" y="184.3" width="6.4" height="43.5" rx="3.2" fill="url(#wave)" opacity="1.00"/><rect x="825.5" y="190.3" width="6.4" height="31.4" rx="3.2" fill="url(#wave)" opacity="1.00"/><rect x="836.4" y="194.7" width="6.4" height="22.6" rx="3.2" fill="url(#wave)" opacity="1.00"/><rect x="847.3" y="197.2" width="6.4" height="17.6" rx="3.2" fill="url(#wave)" opacity="1.00"/><rect x="858.2" y="197.8" width="6.4" height="16.4" rx="3.2" fill="url(#wave)" opacity="1.00"/><rect x="869.1" y="196.8" width="6.4" height="18.3" rx="3.2" fill="url(#wave)" opacity="1.00"/><rect x="880.0" y="194.9" width="6.4" height="22.1" rx="3.2" fill="url(#wave)" opacity="1.00"/><rect x="890.9" y="192.9" width="6.4" height="26.2" rx="3.2" fill="url(#wave)" opacity="1.00"/><rect x="901.8" y="191.4" width="6.4" height="29.2" rx="3.2" fill="url(#wave)" opacity="1.00"/><rect x="912.7" y="191.1" width="6.4" height="29.7" rx="3.2" fill="url(#wave)" opacity="1.00"/><rect x="923.6" y="192.4" width="6.4" height="27.2" rx="3.2" fill="url(#wave)" opacity="1.00"/><rect x="934.5" y="195.2" width="6.4" height="21.5" rx="3.2" fill="url(#wave)" opacity="1.00"/><rect x="945.5" y="199.3" width="6.4" height="13.4" rx="3.2" fill="url(#wave)" opacity="1.00"/><rect x="956.4" y="195.6" width="6.4" height="20.8" rx="3.2" fill="url(#wave)" opacity="1.00"/><rect x="967.3" y="191.1" width="6.4" height="29.7" rx="3.2" fill="url(#wave)" opacity="1.00"/><rect x="978.2" y="187.7" width="6.4" height="36.7" rx="3.2" fill="url(#wave)" opacity="1.00"/><rect x="989.1" y="185.8" width="6.4" height="40.3" rx="3.2" fill="url(#wave)" opacity="1.00"/><rect x="1000.0" y="186.1" width="6.4" height="39.7" rx="3.2" fill="url(#wave)" opacity="1.00"/><rect x="1010.9" y="188.6" width="6.4" height="34.8" rx="3.2" fill="url(#wave)" opacity="1.00"/><rect x="1021.8" y="193.0" width="6.4" height="26.0" rx="3.2" fill="url(#wave)" opacity="1.00"/><rect x="1032.7" y="198.7" width="6.4" height="14.6" rx="3.2" fill="url(#wave)" opacity="1.00"/><rect x="1043.6" y="194.6" width="6.4" height="22.8" rx="3.2" fill="url(#wave)" opacity="1.00"/><rect x="1054.5" y="188.8" width="6.4" height="34.4" rx="3.2" fill="url(#wave)" opacity="1.00"/><rect x="1065.5" y="184.3" width="6.4" height="43.5" rx="3.2" fill="url(#wave)" opacity="1.00"/><rect x="1076.4" y="181.7" width="6.4" height="48.7" rx="3.2" fill="url(#wave)" opacity="1.00"/><rect x="1087.3" y="182.6" width="6.4" height="46.7" rx="3.2" fill="url(#wave)" opacity="0.95"/><rect x="1098.2" y="185.7" width="6.4" height="40.7" rx="3.2" fill="url(#wave)" opacity="0.91"/><rect x="1109.1" y="190.0" width="6.4" height="32.0" rx="3.2" fill="url(#wave)" opacity="0.86"/><rect x="1120.0" y="194.9" width="6.4" height="22.2" rx="3.2" fill="url(#wave)" opacity="0.81"/><rect x="1130.9" y="199.6" width="6.4" height="12.9" rx="3.2" fill="url(#wave)" opacity="0.77"/><rect x="1141.8" y="200.2" width="6.4" height="11.7" rx="3.2" fill="url(#wave)" opacity="0.72"/><rect x="1152.7" y="198.3" width="6.4" height="15.5" rx="3.2" fill="url(#wave)" opacity="0.68"/><rect x="1163.6" y="197.6" width="6.4" height="16.8" rx="3.2" fill="url(#wave)" opacity="0.63"/><rect x="1174.5" y="198.1" width="6.4" height="15.9" rx="3.2" fill="url(#wave)" opacity="0.58"/><rect x="1185.5" y="199.2" width="6.4" height="13.6" rx="3.2" fill="url(#wave)" opacity="0.54"/><rect x="1196.4" y="200.6" width="6.4" height="10.8" rx="3.2" fill="url(#wave)" opacity="0.49"/><rect x="1207.3" y="201.9" width="6.4" height="8.3" rx="3.2" fill="url(#wave)" opacity="0.44"/><rect x="1218.2" y="202.7" width="6.4" height="6.5" rx="3.2" fill="url(#wave)" opacity="0.40"/><rect x="1229.1" y="203.2" width="6.4" height="5.6" rx="3.2" fill="url(#wave)" opacity="0.35"/></g>
  <text x="640" y="92" text-anchor="middle" font-family="ui-monospace,SFMono-Regular,Menlo,Consolas,monospace" font-size="54" font-weight="700" fill="#e6edf7" letter-spacing="1">s2pro<tspan fill="url(#accent)">-native</tspan></text>
  <text x="640" y="128" text-anchor="middle" font-family="ui-monospace,SFMono-Regular,Menlo,Consolas,monospace" font-size="17" fill="#8b98ad" letter-spacing="2">FISH AUDIO S2-PRO · NATIVE C / CUDA SERVING STACK · NVIDIA DGX SPARK</text>
  <text x="640" y="290" text-anchor="middle" font-family="ui-monospace,SFMono-Regular,Menlo,Consolas,monospace" font-size="13" fill="#5b6b82">dual-AR transformer · RVQ vocoder · FP8 block-scale GEMM · zero-dependency HTTP streaming</text>
</svg>